<?xml version="1.0" encoding="UTF-8"?>
<svg id="Camada_2" data-name="Camada 2" xmlns="http://www.w3.org/2000/svg" viewBox="0 0 304.3 282.4">
  <defs>
    <style>
      .cls-1 {
        fill: #593f91;
        stroke-width: 0px;
      }
    </style>
  </defs>
  <g id="Camada_1-2" data-name="Camada 1">
    <g>
      <path class="cls-1" d="m145.27,72.56c-23.73.18-44.94-2.44-65.53-9.14-9.5-3.09-18.53-7.13-26.15-13.85-6.22-5.49-8.44-13.15-5.32-19.58,1.8-3.7,4.69-6.53,7.88-9,6.74-5.22,14.43-8.62,22.45-11.32,14.74-4.95,29.92-7.64,45.41-8.81,7.95-.6,15.89-1.03,23.85-.81,22.63.61,44.89,3.46,66.14,11.77,6.52,2.55,12.7,5.78,18.08,10.36,1.51,1.28,2.88,2.68,4.08,4.26,5.39,7.06,5.08,14.44-.93,21.02-5.24,5.73-11.83,9.45-18.86,12.42-14.86,6.28-30.47,9.54-46.45,11.32-8.9.99-17.81,1.58-24.65,1.36Zm-38.83-56.55c-5.76-.06-9.72,2.66-10.75,7.4-1.12,5.17.62,9.62,4.59,13.02,5.66,4.85,12.66,5.79,19.76,6.3,1.02.07,1.67-.58,2.33-1.23,3.44-3.39,6.19-7.26,8.05-11.72,2.3-5.51,2.45-10.89-1.32-15.92-3.87-5.17-11.59-5.93-15.53-.85-2.32,2.99-4.24,4.42-7.13,3Zm62.97,31.36c4.51-.26,8.84-1.12,12.46-4.17,3.01-2.54,4.34-7.3,2.97-10.74-1.17-2.93-4.44-4.92-7.95-4.46-1.69.23-2.59-.27-3.58-1.55-2.91-3.75-8.01-4.19-11.17-.95-2.46,2.52-3.54,5.61-2.88,9.17.75,4.07,2.78,7.46,5.43,10.59,1.3,1.53,2.68,2.42,4.72,2.1Zm-30.92-34.97c-.35,5.14,5.41,10.33,8.57,11.88.38.18.91.24,1.32.14,3.99-.9,7.65-2.42,10.35-5.68,2.28-2.77,2.66-6.67.92-9.55-1.49-2.46-4.15-3.27-8.08-2.31-.85.21-1.44.07-2.07-.45-2.35-1.88-4.93-2.37-7.61-.87-2.59,1.45-3.41,3.91-3.4,6.84Z"/>
      <path class="cls-1" d="m47.34,48.29c2.53,2.64,4.95,5.22,7.83,7.31,8.67,6.27,18.43,10.15,28.63,13.04,14.13,4,28.54,6.26,43.21,7.08,9.41.52,18.81.64,28.2.26,20.33-.82,40.29-3.86,59.38-11.27,9.27-3.6,17.92-8.25,24.5-16.02.12-.14.38-.17.61-.26.65.85.36,1.79.36,2.65.02,11.08-.33,22.17.16,33.22.26,5.85-1.93,10.08-5.72,13.95-1.97,2.01-4.16,3.77-6.52,5.3-4.21,2.75-8.63,3.03-13.21.96-1.52-.69-3.04-1.37-4.55-2.08-9.6-4.51-17.5-2.51-23.83,5.98-1.4,1.88-2.79,3.8-4.4,5.5-4.19,4.43-9.86,5.12-15.11,2.07-3.21-1.86-6.12-4.23-9.59-5.67-7.39-3.06-14.52-2.64-21.25,1.79-2.47,1.62-4.74,3.53-7.13,5.27-5.92,4.3-12.17,3.48-16.87-2.18-1.84-2.22-3.59-4.52-5.56-6.61-6.56-6.95-14.87-8.58-23.65-4.76-1.39.6-2.76,1.27-4.17,1.82-4.59,1.76-8.03.91-11.1-2.97-1.74-2.19-3.26-4.57-4.74-6.95-3.38-5.42-7.67-9.58-14.26-10.7-1.03-.17-1.61-.72-1.61-1.84.02-11.38.02-22.76.04-34.13,0-.19.18-.37.37-.75Z"/>
      <path class="cls-1" d="m46.91,102.92c0-3.94.05-7.89-.02-11.83-.04-2.01.78-2.58,2.65-2.06,3.38.92,5.89,3.02,7.99,5.71,2.66,3.41,4.63,7.3,7.44,10.61,3.83,4.52,8.42,5.88,14.06,3.98,2.3-.78,4.51-1.8,6.79-2.61,6.46-2.29,12.29-1.28,17.15,3.67,2.44,2.48,4.51,5.32,6.9,7.85,6.55,6.89,14.14,7.48,21.76,1.79,2.31-1.72,4.51-3.63,6.95-5.12,5.49-3.35,11.27-3.71,17.18-1.09,2.79,1.24,5.3,2.94,7.84,4.61,7.98,5.25,16.68,3.87,22.63-3.63,1.46-1.84,2.8-3.78,4.27-5.61,4.12-5.14,9.95-6.7,16.1-4.3,1.62.63,3.21,1.36,4.78,2.13,8.98,4.43,15.32,3,22.91-3.59,1.54-1.34,2.9-2.89,4.36-4.32.26-.25.64-.6.92-.56.58.08.49.68.49,1.11,0,5.16.25,10.33-.13,15.47-.43,5.96-4.34,10.04-8.72,13.59-8.29,6.73-18.07,10.43-28.14,13.45-13.71,4.1-27.75,6.34-42.01,7.36-26.31,1.89-52.26.02-77.65-7.44-10.37-3.05-20.38-7.02-28.78-14.15-4.96-4.21-8.24-9.23-7.75-16.13.21-2.94.04-5.91.04-8.87Z"/>
      <path class="cls-1" d="m146.8,170.91c-29.07.07-54.27-2.39-79.02-8.7-10.9-2.78-21.58-6.21-31.35-11.95-4.73-2.77-9.2-5.89-12.46-10.44-4.27-5.97-4.14-12.58.56-18.22,4.55-5.47,10.43-9.2,16.71-12.34,1.3-.65,1.81-.29,1.77,1.13-.08,2.74.07,5.47.79,8.12,1.3,4.77,4.2,8.55,7.82,11.77,7.45,6.62,16.32,10.7,25.62,13.89,13.11,4.5,26.66,6.97,40.42,8.41,10.26,1.07,20.56,1.55,30.87,1.27,21.62-.57,42.93-3.15,63.41-10.56,9.4-3.4,18.29-7.78,25.36-15.13,4.23-4.39,6.62-9.5,6.37-15.76-.16-4.01.02-4.05,3.64-2.18,4.53,2.34,8.81,5.06,12.48,8.65,9.15,8.96,7.77,17.84-1.5,25.9-5.14,4.46-11.14,7.61-17.39,10.22-15.78,6.6-32.36,10.19-49.21,12.63-16.07,2.33-32.23,3.54-44.91,3.31Z"/>
      <path class="cls-1" d="m116.89,38.83c-4.45-.46-9.28-1.56-13.48-4.59-2.12-1.53-3.45-3.57-4.12-6.08-.73-2.73-.21-5.14,1.95-7.02,2.25-1.95,4.86-2,7.47-.92,4.23,1.75,4.21,1.8,5.98-2.52,2.01-4.92,7.77-5.91,11.17-1.88,2.54,3.02,3.06,6.46,1.97,10.24-1.34,4.64-4.01,8.44-7.19,11.97-.91,1.01-2.04.8-3.75.8Z"/>
      <path class="cls-1" d="m162.85,33c.07-1.49.36-2.82,1.17-3.97,1.97-2.79,5.42-2.52,6.96.54.2.4.33.84.49,1.27.92,2.59,1.36,2.78,3.76,1.59.81-.4,1.61-.86,2.57-.78,2.86.24,4.44,2.49,3.72,5.31-.47,1.87-1.57,3.24-3.19,4.25-2.65,1.65-5.63,2.19-8.66,2.53-.7.08-1.4-.03-1.89-.59-2.57-2.97-4.69-6.16-4.94-10.15Z"/>
      <path class="cls-1" d="m157.11,13.16c-.22,2.75-1.89,4.38-4.01,5.53-1.78.96-3.65,2.71-5.82,1.31-2.71-1.75-4.9-4.1-5.16-7.57-.12-1.67.43-3.28,2.15-3.88,1.72-.61,2.81.59,3.71,1.89,1.55,2.23,1.77,2.27,4.01.55,1.11-.85,2.27-1.19,3.58-.53,1.15.58,1.5,1.62,1.53,2.71Z"/>
    </g>
    <g>
      <path class="cls-1" d="m41.26,182.77c0,4.99-2.39,11.28-6.83,17.03-.32.33-.76.33-1.08,0-.32-.11-.32-.65,0-.98,4.12-5.42,6.51-11.28,6.4-16.05,0-2.71-.87-5.21-3.04-7.05-2.28-1.74-4.77-1.52-7.48-.43-15.29,6.83-20.39,30.59-20.93,45.44-.43,17.24,7.7,67.35,32.75,40.13,5.97-6.51,9.54-15.08,9.98-19.96.22-.43.54-.76.98-.54.32,0,.65.22.65.76-.87,5.1-4.34,13.99-10.52,20.82-5.1,5.42-13.23,10.41-21.04,9C4.93,268.02.48,240.79.05,227.24c-.65-19.63,5.42-54.56,30.48-54.66,2.5,0,5.1.43,7.16,2.06,2.5,1.95,3.47,4.99,3.58,8.13Z"/>
      <path class="cls-1" d="m86.27,226.8c-1.41,8.13-2.93,28.52-1.52,37.09.98,6.07,3.8,2.28,5.86-.65,3.47-4.88,7.16-11.82,10.2-18.11.11-.54.43-.65.98-.54.32.22.43.65.32.98-2.93,6.72-6.83,13.45-10.3,18.55-5.64,8.35-11.5,8.24-14.21-.43-1.08-3.36-1.41-7.16-1.52-15.51-.98,3.15-2.17,6.62-3.69,9.87-1.84,4.23-4.23,8.24-6.83,10.85-5.64,5.64-11.6,2.6-13.34-4.23-2.28-9.76,1.95-34.38,14.64-34.71,3.15-.11,7.7,3.69,9.76,6.83.43-4.45.98-8.13,1.41-10.2,0-.43.32-.65.65-.65h6.83c.43,0,.76.33.76.65v.22Zm-26.03,29.07c-.11,6.18.87,15.4,4.34,11.93,2.5-2.49,4.77-6.18,6.62-10.41,3.04-6.83,5.1-14.53,5.1-18,0-1.41-4.66-6.4-6.29-6.83-6.18-1.63-9.55,12.47-9.76,23.32Z"/>
      <path class="cls-1" d="m123.15,230.38c5.1-2.93,16.49-1.41,13.99,7.7-1.63,4.66-6.4,10.09-14.97,13.88,8.89,8.89,5.1,21.26,12.91,16.92,5.21-3.36,12.58-18.22,14.97-23.75.11-.33.43-.65.98-.54.22.22.43.65.22.98-3.15,7.7-9,19.2-15.29,24.84-13.23,10.19-14.43-9.87-20.82-16.38-1.3,0-2.39-.33-3.25-1.3-.22,5.31.33,11.71,2.93,18.87v.33c0,.33-.33.65-.65.65h-6.83c-.54,0-.65-.22-.76-.54-6.72-16.16-8.46-40.89-5.31-60.95,1.3-8.68,8.79-32.65,20.61-36.55,6.29-2.17,11.6,1.52,12.26,8.03,2.71,17.68-11.28,38.29-26.03,45.99-.11,9.76.65,19.31,2.28,27.77-.22-10.52,4.12-20.93,12.8-25.92Zm9.44-47.94c-.43-3.69-3.25-7.05-7.48-5.21-8.68,3.9-13.88,24.19-15.29,32.21-1.08,6.4-1.52,12.58-1.74,17.46,14.97-8.46,27.11-27.66,24.51-44.47Zm-14.32,66.38c4.99-3.25,8.79-7.38,10.52-10.85,2.71-4.88.76-9.11-4.56-6.51-6.18,2.71-10.41,11.39-11.71,16.81,1.84-1.3,4.01-.43,5.75.54Z"/>
      <path class="cls-1" d="m164.58,251.1c-2.6,1.84-5.1,2.39-8.03,2.39-.33,2.71-.43,5.21-.11,7.59.65,4.12,4.45,11.28,9.44,8.35,8.13-4.88,13.99-16.7,17.68-24.51.22-.54.65-.65.98-.33.54.11.54.43.32.98-4.23,8.79-10.3,20.5-18,25.16-4.23,2.39-9.87,2.49-13.67-.54-3.58-2.82-5.31-8.03-5.31-13.34,0-8.57,6.18-28.74,16.27-28.74,2.71,0,4.34,1.84,5.31,4.23.87,2.17,1.19,4.77,1.19,6.51,0,4.34-1.52,9.11-6.07,12.26Zm-.76-1.08c4.01-2.93,5.42-7.16,5.42-11.17,0-1.63-.33-4.56-1.3-5.97-.76-1.08-1.84-1.41-3.25.33-4.56,5.21-7.48,12.47-8.03,18.87,2.93,0,5.21-.76,7.16-2.06Z"/>
      <path class="cls-1" d="m190.39,214.87c10.09,1.84,20.17,2.6,28.42-2.71.65-.33,1.41-.22,1.74.33.32.54.22,1.41-.33,1.74-9.11,5.75-19.96,4.88-29.93,3.15-.33,16.81,0,38.39,2.71,47.94.98,3.25,2.39,2.49,3.9.65,4.99-6.62,8.79-13.56,12.15-20.82.11-.54.65-.65.98-.54.43.22.65.65.43.98-3.8,8.13-7.38,15.51-12.58,21.48-6.07,7.38-11.06,1.52-13.01-7.16-1.84-8.79-3.04-28.74-3.15-44.25-10.63-2.06-20.5-3.9-27.33.54-.54.33-1.3.22-1.74-.33-.33-.54-.11-1.3.43-1.74,7.59-4.88,17.79-3.15,28.63-.98,0-8.35.43-15.18,1.19-17.57,1.08-.98,8.24-1.95,8.24.11-.22,2.6-.54,9.98-.76,19.2Z"/>
      <path class="cls-1" d="m215.99,214.87c10.09,1.84,20.17,2.6,28.42-2.71.65-.33,1.41-.22,1.74.33.33.54.22,1.41-.32,1.74-9.11,5.75-19.96,4.88-29.93,3.15-.33,16.81,0,38.39,2.71,47.94.98,3.25,2.39,2.49,3.9.65,4.99-6.62,8.79-13.56,12.15-20.82.11-.54.65-.65.98-.54.43.22.65.65.43.98-3.8,8.13-7.38,15.51-12.58,21.48-6.07,7.38-11.06,1.52-13.01-7.16-1.84-8.79-3.04-28.74-3.15-44.25-10.63-2.06-20.5-3.9-27.33.54-.54.33-1.3.22-1.74-.33-.33-.54-.11-1.3.43-1.74,7.59-4.88,17.79-3.15,28.63-.98,0-8.35.43-15.18,1.19-17.57,1.08-.98,8.24-1.95,8.24.11-.22,2.6-.54,9.98-.76,19.2Z"/>
      <path class="cls-1" d="m249.18,251.1c-2.6,1.84-5.1,2.39-8.03,2.39-.33,2.71-.43,5.21-.11,7.59.65,4.12,4.45,11.28,9.44,8.35,8.13-4.88,13.99-16.7,17.68-24.51.22-.54.65-.65.98-.33.54.11.54.43.33.98-4.23,8.79-10.3,20.5-18,25.16-4.23,2.39-9.87,2.49-13.67-.54-3.58-2.82-5.31-8.03-5.31-13.34,0-8.57,6.18-28.74,16.27-28.74,2.71,0,4.34,1.84,5.31,4.23.87,2.17,1.19,4.77,1.19,6.51,0,4.34-1.52,9.11-6.07,12.26Zm-.76-1.08c4.01-2.93,5.42-7.16,5.42-11.17,0-1.63-.33-4.56-1.3-5.97-.76-1.08-1.84-1.41-3.25.33-4.56,5.21-7.48,12.47-8.03,18.87,2.93,0,5.21-.76,7.16-2.06Z"/>
      <path class="cls-1" d="m287.25,244.59c.43,0,.76.54.65.98-.33,1.63-.65,18.33.76,27.11.65,4.77,2.06,7.16,4.12,3.15,2.39-4.23,4.66-10.52,6.51-16.81,1.52-4.66,2.71-9.44,3.58-13.77.11-.33.43-.65.98-.43.32,0,.54.43.43.76-.98,4.45-2.06,9.22-3.47,13.88-1.95,6.4-4.34,12.58-6.72,17.03-6.07,11.5-12.58,4.34-13.67-5.21-1.52-9.11-1.52-20.72-.98-25.05-9.11,1.63-14.53-.65-17.35-4.45-5.31-7.16-1.95-18.98,3.58-24.84,3.36-3.69,7.27-4.66,8.13,2.71.33,2.49.22,5.86-.33,9.22-.43,4.12-1.41,8.46-2.17,11.6,4.01,4.01,10.63,4.45,15.94,4.12Zm-18.98-16.38c-.65,3.69-.54,7.81,1.95,10.95.54-3.04,1.41-6.83,1.84-10.52.54-3.36.54-6.29.32-8.89-.11-.11-.11-.43-.11-.76-1.95,2.49-3.36,5.75-4.01,9.22Z"/>
    </g>
  </g>
</svg>